<mxfile host="app.diagrams.net" agent="Mozilla/5.0 (Windows NT 10.0; Win64; x64) AppleWebKit/537.36 (KHTML, like Gecko) Chrome/135.0.0.0 Safari/537.36" version="26.2.14">
  <diagram name="Страница — 1" id="kuwgFQcUwTSD933Unh75">
    <mxGraphModel dx="1029" dy="595" grid="1" gridSize="10" guides="1" tooltips="1" connect="1" arrows="1" fold="1" page="1" pageScale="1" pageWidth="827" pageHeight="1169" math="0" shadow="0">
      <root>
        <mxCell id="0" />
        <mxCell id="1" parent="0" />
        <mxCell id="B2Q0T-CgdTfeG1zjJ1uI-1" value="Source" style="text;html=1;align=center;verticalAlign=middle;whiteSpace=wrap;rounded=0;fontSize=24;fontStyle=1" vertex="1" parent="1">
          <mxGeometry x="90" y="230" width="100" height="40" as="geometry" />
        </mxCell>
        <mxCell id="B2Q0T-CgdTfeG1zjJ1uI-3" value="Source" style="text;html=1;align=center;verticalAlign=middle;whiteSpace=wrap;rounded=0;fontSize=24;fontStyle=1" vertex="1" parent="1">
          <mxGeometry x="360" y="230" width="100" height="40" as="geometry" />
        </mxCell>
        <mxCell id="B2Q0T-CgdTfeG1zjJ1uI-4" value="Source" style="text;html=1;align=center;verticalAlign=middle;whiteSpace=wrap;rounded=0;fontSize=24;fontStyle=1" vertex="1" parent="1">
          <mxGeometry x="630" y="230" width="100" height="40" as="geometry" />
        </mxCell>
        <mxCell id="B2Q0T-CgdTfeG1zjJ1uI-72" value="" style="group" vertex="1" connectable="0" parent="1">
          <mxGeometry x="90" y="282" width="120" height="223" as="geometry" />
        </mxCell>
        <mxCell id="B2Q0T-CgdTfeG1zjJ1uI-63" value="" style="shape=ext;double=1;rounded=1;whiteSpace=wrap;html=1;" vertex="1" parent="B2Q0T-CgdTfeG1zjJ1uI-72">
          <mxGeometry width="120" height="35" as="geometry" />
        </mxCell>
        <mxCell id="B2Q0T-CgdTfeG1zjJ1uI-64" value="Сайт" style="text;strokeColor=none;fillColor=none;spacingLeft=4;spacingRight=4;overflow=hidden;rotatable=0;points=[[0,0.5],[1,0.5]];portConstraint=eastwest;fontSize=14;whiteSpace=wrap;html=1;fontStyle=1;align=center;" vertex="1" parent="B2Q0T-CgdTfeG1zjJ1uI-72">
          <mxGeometry x="16.879999999999995" y="2.5" width="77.5" height="30" as="geometry" />
        </mxCell>
        <mxCell id="B2Q0T-CgdTfeG1zjJ1uI-77" style="edgeStyle=orthogonalEdgeStyle;rounded=0;orthogonalLoop=1;jettySize=auto;html=1;exitX=1;exitY=0.5;exitDx=0;exitDy=0;endArrow=none;startFill=0;" edge="1" parent="B2Q0T-CgdTfeG1zjJ1uI-72" source="B2Q0T-CgdTfeG1zjJ1uI-66">
          <mxGeometry relative="1" as="geometry">
            <mxPoint x="180" y="80.5" as="targetPoint" />
          </mxGeometry>
        </mxCell>
        <mxCell id="B2Q0T-CgdTfeG1zjJ1uI-66" value="" style="shape=ext;double=1;rounded=1;whiteSpace=wrap;html=1;" vertex="1" parent="B2Q0T-CgdTfeG1zjJ1uI-72">
          <mxGeometry y="63" width="120" height="35" as="geometry" />
        </mxCell>
        <mxCell id="B2Q0T-CgdTfeG1zjJ1uI-67" value="Приложение" style="text;strokeColor=none;fillColor=none;spacingLeft=4;spacingRight=4;overflow=hidden;rotatable=0;points=[[0,0.5],[1,0.5]];portConstraint=eastwest;fontSize=14;whiteSpace=wrap;html=1;fontStyle=1;align=center;" vertex="1" parent="B2Q0T-CgdTfeG1zjJ1uI-72">
          <mxGeometry x="15.625" y="63" width="88.75" height="30" as="geometry" />
        </mxCell>
        <mxCell id="B2Q0T-CgdTfeG1zjJ1uI-76" style="edgeStyle=orthogonalEdgeStyle;rounded=0;orthogonalLoop=1;jettySize=auto;html=1;endArrow=none;startFill=0;" edge="1" parent="B2Q0T-CgdTfeG1zjJ1uI-72" source="B2Q0T-CgdTfeG1zjJ1uI-69">
          <mxGeometry relative="1" as="geometry">
            <mxPoint x="180" y="142.5000000000001" as="targetPoint" />
          </mxGeometry>
        </mxCell>
        <mxCell id="B2Q0T-CgdTfeG1zjJ1uI-69" value="" style="shape=ext;double=1;rounded=1;whiteSpace=wrap;html=1;" vertex="1" parent="B2Q0T-CgdTfeG1zjJ1uI-72">
          <mxGeometry y="125" width="120" height="35" as="geometry" />
        </mxCell>
        <mxCell id="B2Q0T-CgdTfeG1zjJ1uI-70" value="Соцсети" style="text;strokeColor=none;fillColor=none;spacingLeft=4;spacingRight=4;overflow=hidden;rotatable=0;points=[[0,0.5],[1,0.5]];portConstraint=eastwest;fontSize=14;whiteSpace=wrap;html=1;fontStyle=1;align=center;" vertex="1" parent="B2Q0T-CgdTfeG1zjJ1uI-72">
          <mxGeometry x="21.25" y="125" width="77.5" height="30" as="geometry" />
        </mxCell>
        <mxCell id="B2Q0T-CgdTfeG1zjJ1uI-75" style="edgeStyle=orthogonalEdgeStyle;rounded=0;orthogonalLoop=1;jettySize=auto;html=1;endArrow=none;startFill=0;" edge="1" parent="B2Q0T-CgdTfeG1zjJ1uI-72" source="B2Q0T-CgdTfeG1zjJ1uI-20">
          <mxGeometry relative="1" as="geometry">
            <mxPoint x="240" y="108" as="targetPoint" />
            <Array as="points">
              <mxPoint x="180" y="206" />
              <mxPoint x="180" y="108" />
            </Array>
          </mxGeometry>
        </mxCell>
        <mxCell id="B2Q0T-CgdTfeG1zjJ1uI-20" value="" style="shape=ext;double=1;rounded=1;whiteSpace=wrap;html=1;" vertex="1" parent="B2Q0T-CgdTfeG1zjJ1uI-72">
          <mxGeometry y="188" width="120" height="35" as="geometry" />
        </mxCell>
        <mxCell id="B2Q0T-CgdTfeG1zjJ1uI-21" value="Реклама" style="text;strokeColor=none;fillColor=none;spacingLeft=4;spacingRight=4;overflow=hidden;rotatable=0;points=[[0,0.5],[1,0.5]];portConstraint=eastwest;fontSize=14;whiteSpace=wrap;html=1;fontStyle=1;align=center;" vertex="1" parent="B2Q0T-CgdTfeG1zjJ1uI-72">
          <mxGeometry x="16.879999999999995" y="188" width="77.5" height="30" as="geometry" />
        </mxCell>
        <mxCell id="B2Q0T-CgdTfeG1zjJ1uI-74" style="edgeStyle=orthogonalEdgeStyle;rounded=0;orthogonalLoop=1;jettySize=auto;html=1;" edge="1" parent="B2Q0T-CgdTfeG1zjJ1uI-72">
          <mxGeometry relative="1" as="geometry">
            <mxPoint x="120" y="18" as="sourcePoint" />
            <mxPoint x="240" y="108" as="targetPoint" />
            <Array as="points">
              <mxPoint x="180" y="18" />
              <mxPoint x="180" y="108" />
            </Array>
          </mxGeometry>
        </mxCell>
        <mxCell id="B2Q0T-CgdTfeG1zjJ1uI-73" value="" style="group" vertex="1" connectable="0" parent="1">
          <mxGeometry x="328.335" y="323.5" width="163.33499999999998" height="140" as="geometry" />
        </mxCell>
        <mxCell id="B2Q0T-CgdTfeG1zjJ1uI-8" value="" style="shape=cylinder3;whiteSpace=wrap;html=1;boundedLbl=1;backgroundOutline=1;size=15;fillColor=#d5e8d4;strokeColor=#82b366;" vertex="1" parent="B2Q0T-CgdTfeG1zjJ1uI-73">
          <mxGeometry y="70" width="163.33" height="70" as="geometry" />
        </mxCell>
        <mxCell id="B2Q0T-CgdTfeG1zjJ1uI-5" value="" style="shape=cylinder3;whiteSpace=wrap;html=1;boundedLbl=1;backgroundOutline=1;size=15;fillColor=#d5e8d4;strokeColor=#82b366;" vertex="1" parent="B2Q0T-CgdTfeG1zjJ1uI-73">
          <mxGeometry x="0.0049999999999954525" width="163.33" height="100" as="geometry" />
        </mxCell>
        <mxCell id="B2Q0T-CgdTfeG1zjJ1uI-10" value="Хранилище данных" style="text;html=1;align=center;verticalAlign=middle;whiteSpace=wrap;rounded=0;fontSize=18;fontStyle=0" vertex="1" parent="B2Q0T-CgdTfeG1zjJ1uI-73">
          <mxGeometry x="1.6650000000000205" y="40" width="160" height="50" as="geometry" />
        </mxCell>
        <mxCell id="B2Q0T-CgdTfeG1zjJ1uI-79" value="ETL" style="text;strokeColor=none;fillColor=none;spacingLeft=4;spacingRight=4;overflow=hidden;rotatable=0;points=[[0,0.5],[1,0.5]];portConstraint=eastwest;fontSize=12;whiteSpace=wrap;html=1;fontStyle=1;align=center;" vertex="1" parent="1">
          <mxGeometry x="280" y="370" width="35" height="26" as="geometry" />
        </mxCell>
        <mxCell id="B2Q0T-CgdTfeG1zjJ1uI-101" value="Excel" style="text;strokeColor=none;fillColor=none;spacingLeft=4;spacingRight=4;overflow=hidden;rotatable=0;points=[[0,0.5],[1,0.5]];portConstraint=eastwest;fontSize=12;whiteSpace=wrap;html=1;fontStyle=1;align=center;" vertex="1" parent="1">
          <mxGeometry x="617.5" y="350" width="40" height="26" as="geometry" />
        </mxCell>
        <mxCell id="B2Q0T-CgdTfeG1zjJ1uI-102" value="SQL" style="text;strokeColor=none;fillColor=none;spacingLeft=4;spacingRight=4;overflow=hidden;rotatable=0;points=[[0,0.5],[1,0.5]];portConstraint=eastwest;fontSize=12;whiteSpace=wrap;html=1;fontStyle=1;align=center;" vertex="1" parent="1">
          <mxGeometry x="620" y="270" width="35" height="26" as="geometry" />
        </mxCell>
        <mxCell id="B2Q0T-CgdTfeG1zjJ1uI-112" style="edgeStyle=orthogonalEdgeStyle;rounded=0;orthogonalLoop=1;jettySize=auto;html=1;entryX=1;entryY=0.5;entryDx=0;entryDy=0;" edge="1" parent="1" source="B2Q0T-CgdTfeG1zjJ1uI-104" target="B2Q0T-CgdTfeG1zjJ1uI-10">
          <mxGeometry relative="1" as="geometry" />
        </mxCell>
        <mxCell id="B2Q0T-CgdTfeG1zjJ1uI-104" value="" style="sketch=0;points=[[0,0,0],[0.25,0,0],[0.5,0,0],[0.75,0,0],[1,0,0],[0,1,0],[0.25,1,0],[0.5,1,0],[0.75,1,0],[1,1,0],[0,0.25,0],[0,0.5,0],[0,0.75,0],[1,0.25,0],[1,0.5,0],[1,0.75,0]];outlineConnect=0;fontColor=#232F3E;fillColor=light-dark(#fb89c6, #b17dff);strokeColor=#ffffff;dashed=0;verticalLabelPosition=bottom;verticalAlign=top;align=center;html=1;fontSize=12;fontStyle=0;aspect=fixed;shape=mxgraph.aws4.resourceIcon;resIcon=mxgraph.aws4.sql_workbench;" vertex="1" parent="1">
          <mxGeometry x="613.505" y="292" width="48" height="48" as="geometry" />
        </mxCell>
        <mxCell id="B2Q0T-CgdTfeG1zjJ1uI-105" value="" style="shape=image;html=1;verticalAlign=top;verticalLabelPosition=bottom;labelBackgroundColor=#ffffff;imageAspect=0;aspect=fixed;image=https://cdn3.iconfinder.com/data/icons/document-icons-2/30/647702-excel-128.png" vertex="1" parent="1">
          <mxGeometry x="610.505" y="376" width="54" height="54" as="geometry" />
        </mxCell>
        <mxCell id="B2Q0T-CgdTfeG1zjJ1uI-115" style="edgeStyle=orthogonalEdgeStyle;rounded=0;orthogonalLoop=1;jettySize=auto;html=1;entryX=1;entryY=0.5;entryDx=0;entryDy=0;" edge="1" parent="1" source="B2Q0T-CgdTfeG1zjJ1uI-106" target="B2Q0T-CgdTfeG1zjJ1uI-10">
          <mxGeometry relative="1" as="geometry" />
        </mxCell>
        <mxCell id="B2Q0T-CgdTfeG1zjJ1uI-106" value="" style="image;aspect=fixed;html=1;points=[];align=center;fontSize=12;image=img/lib/azure2/analytics/Power_BI_Embedded.svg;" vertex="1" parent="1">
          <mxGeometry x="613.88" y="463.5" width="47.25" height="63" as="geometry" />
        </mxCell>
        <mxCell id="B2Q0T-CgdTfeG1zjJ1uI-107" value="BI" style="text;strokeColor=none;fillColor=none;spacingLeft=4;spacingRight=4;overflow=hidden;rotatable=0;points=[[0,0.5],[1,0.5]];portConstraint=eastwest;fontSize=12;whiteSpace=wrap;html=1;fontStyle=1;align=center;" vertex="1" parent="1">
          <mxGeometry x="617.5" y="440" width="40" height="26" as="geometry" />
        </mxCell>
        <mxCell id="B2Q0T-CgdTfeG1zjJ1uI-108" value="" style="verticalLabelPosition=bottom;html=1;verticalAlign=top;align=center;strokeColor=none;fillColor=light-dark(#6b6b6b, #0089b6);shape=mxgraph.azure.user;flipH=1;" vertex="1" parent="1">
          <mxGeometry x="733.75" y="346" width="47.5" height="50" as="geometry" />
        </mxCell>
        <mxCell id="B2Q0T-CgdTfeG1zjJ1uI-109" value="User" style="text;strokeColor=none;fillColor=none;spacingLeft=4;spacingRight=4;overflow=hidden;rotatable=0;points=[[0,0.5],[1,0.5]];portConstraint=eastwest;fontSize=12;whiteSpace=wrap;html=1;fontStyle=1;align=center;" vertex="1" parent="1">
          <mxGeometry x="737.5" y="314" width="40" height="26" as="geometry" />
        </mxCell>
        <mxCell id="B2Q0T-CgdTfeG1zjJ1uI-117" style="edgeStyle=orthogonalEdgeStyle;rounded=0;orthogonalLoop=1;jettySize=auto;html=1;entryX=1;entryY=0.5;entryDx=0;entryDy=0;" edge="1" parent="1" source="B2Q0T-CgdTfeG1zjJ1uI-105" target="B2Q0T-CgdTfeG1zjJ1uI-10">
          <mxGeometry relative="1" as="geometry">
            <mxPoint x="611" y="403" as="sourcePoint" />
            <mxPoint x="490" y="389" as="targetPoint" />
            <Array as="points">
              <mxPoint x="552" y="403" />
              <mxPoint x="552" y="389" />
            </Array>
          </mxGeometry>
        </mxCell>
      </root>
    </mxGraphModel>
  </diagram>
</mxfile>
